<?xml version="1.0" standalone="no"?>
<!DOCTYPE svg PUBLIC "-//W3C//DTD SVG 20010904//EN"
 "http://www.w3.org/TR/2001/REC-SVG-20010904/DTD/svg10.dtd">
<svg version="1.0" xmlns="http://www.w3.org/2000/svg"
 width="600.000000pt" height="400.000000pt" viewBox="0 0 600.000000 400.000000"
 preserveAspectRatio="xMidYMid meet">

<g transform="translate(0.000000,400.000000) scale(0.100000,-0.100000)"
fill="#000000" stroke="none">
<path d="M185 3555 c5 -134 4 -195 -3 -195 -6 0 -17 -3 -25 -6 -9 -3 -41 18
-84 57 l-68 62 -3 -28 c-2 -16 2 -32 10 -36 70 -40 153 -108 158 -129 4 -14
10 -96 14 -183 8 -189 9 -188 -100 -134 -41 21 -77 37 -79 37 -3 0 -5 -13 -5
-28 0 -24 8 -32 47 -52 26 -13 61 -26 77 -30 24 -5 31 -11 30 -28 0 -18 5 -22
28 -22 21 0 27 -4 22 -12 -5 -7 -7 -26 -6 -43 1 -16 -2 -37 -8 -45 -8 -13 -10
-13 -10 3 0 9 -6 17 -14 17 -11 0 -14 -17 -15 -71 -1 -80 -6 -93 -26 -65 -15
19 -35 14 -35 -10 0 -24 -29 -16 -36 10 -6 26 -34 26 -34 0 0 -8 -4 -14 -10
-14 -6 0 -10 -455 -10 -1305 l0 -1305 670 1 c520 0 669 3 663 12 -5 9 -4 9 8
0 19 -15 719 -18 719 -3 0 6 5 10 11 10 5 0 8 -4 4 -9 -3 -6 132 -10 342 -10
259 0 349 3 355 12 6 9 8 9 8 0 0 -10 66 -13 296 -13 194 0 293 3 289 10 -3 6
-1 10 4 10 6 0 11 -4 11 -10 0 -10 85 -9 95 2 4 4 15 2 25 -4 9 -6 26 -8 36
-4 16 6 16 9 4 16 -8 6 -10 10 -4 10 6 0 17 -6 23 -14 15 -18 457 -24 446 -5
-6 8 -2 8 13 0 31 -17 608 -15 616 2 5 9 7 9 12 0 4 -10 150 -13 680 -13 l674
0 0 685 0 685 -32 0 c-40 0 -129 16 -983 170 -247 44 -515 94 -595 110 -80 16
-257 50 -395 75 -347 63 -419 77 -428 85 -4 3 -1 15 7 25 13 18 19 18 107 6
143 -19 264 -39 374 -61 144 -29 433 -84 630 -120 94 -17 188 -35 210 -40 22
-6 65 -15 95 -21 193 -36 718 -133 785 -144 44 -8 104 -18 134 -24 101 -20 91
-61 91 360 0 322 -2 370 -15 366 -8 -4 -17 -2 -20 3 -4 6 -17 10 -31 10 -24 0
-28 8 -26 55 0 11 6 34 13 50 6 17 13 37 14 45 4 30 17 60 26 60 5 0 12 18 15
40 4 22 11 43 15 46 5 3 9 61 9 128 l0 123 -25 -5 c-19 -3 -25 -11 -25 -29 0
-15 -7 -27 -18 -29 -14 -4 -16 -14 -14 -48 4 -40 2 -44 -23 -50 -19 -5 -25
-11 -21 -22 3 -9 6 -22 6 -30 0 -8 7 -14 15 -14 8 0 15 -3 16 -7 0 -5 2 -21 4
-37 4 -31 -37 -130 -58 -140 -9 -5 -9 -7 1 -12 14 -7 16 -34 2 -34 -5 0 -10
-7 -10 -15 0 -8 -4 -15 -10 -15 -5 0 -10 8 -10 17 0 13 -3 14 -12 5 -15 -15
-68 -16 -68 -1 0 9 -67 44 -80 42 -3 -1 -16 7 -29 17 l-24 18 21 41 c17 32 20
49 14 73 -14 54 4 150 38 209 35 59 32 83 -11 85 -13 0 -32 4 -41 8 -9 4 -25
3 -37 -3 -31 -17 -153 -14 -179 5 -18 13 -23 13 -27 2 -5 -12 0 -522 4 -568 1
-8 0 -37 -2 -65 -3 -50 -4 -50 -40 -53 -40 -3 -59 17 -39 41 11 13 7 601 -4
619 -3 4 -25 8 -50 8 -25 0 -55 6 -67 14 -36 23 -86 29 -133 16 -24 -7 -44
-17 -44 -21 0 -5 -18 -9 -40 -9 l-40 0 0 -233 c0 -129 -3 -268 -6 -310 l-7
-76 29 -12 c17 -6 90 -11 172 -10 122 0 142 -2 142 -16 0 -10 -6 -14 -20 -10
-11 3 -20 2 -20 -2 0 -14 -263 -2 -272 12 -5 8 -8 9 -8 0 0 -16 -146 -29 -164
-14 -26 22 -12 45 29 48 21 1 42 6 48 12 8 8 12 267 8 529 l-1 82 -39 0 -40 0
-1 -257 c0 -141 -3 -259 -5 -262 -21 -20 -35 98 -39 312 -2 107 -6 198 -9 203
-7 11 -180 9 -268 -3 -37 -5 -74 -15 -83 -22 -9 -7 -23 -10 -32 -7 -9 4 -22 2
-28 -3 -16 -12 -103 -29 -160 -31 -27 0 -57 -5 -67 -11 -45 -23 -89 7 -89 61
0 17 -4 30 -10 30 -6 0 -8 -17 -5 -41 7 -55 -14 -79 -67 -79 -21 0 -38 -4 -38
-10 0 -5 -12 -10 -26 -10 -46 0 -63 -16 -61 -60 2 -48 15 -50 50 -10 18 19 37
30 55 30 15 0 34 5 42 10 10 6 20 4 31 -6 15 -14 16 -20 5 -52 -12 -34 -15
-36 -60 -38 -26 -1 -49 -4 -52 -7 -3 -3 -17 1 -32 9 -24 12 -28 12 -39 -3 -7
-9 -10 -26 -7 -39 11 -44 -3 -62 -54 -68 -26 -3 -55 -6 -64 -6 -10 -1 -25 -17
-34 -36 -15 -30 -21 -34 -58 -35 -22 0 -35 -3 -28 -6 6 -2 12 -20 12 -39 0
-30 -3 -34 -27 -34 -16 0 -35 -4 -43 -10 -20 -12 -40 6 -40 37 0 26 -52 83
-75 83 -7 0 -20 -11 -29 -25 -28 -42 -63 -54 -141 -46 -86 9 -180 5 -264 -11
-58 -11 -64 -11 -77 7 -8 10 -14 27 -14 36 0 12 -24 30 -70 55 -61 32 -69 39
-64 59 3 13 1 26 -5 29 -6 4 -11 21 -11 37 0 52 -17 23 -18 -31 0 -29 -5 -57
-11 -63 -5 -7 -28 -11 -51 -10 -31 1 -43 -3 -47 -15 -2 -10 -8 -26 -13 -37 -5
-11 -11 -29 -15 -40 -6 -18 -7 -18 -16 -3 -11 20 -72 42 -96 34 -12 -4 -28 4
-46 24 -33 35 -47 38 -54 11 -4 -18 -60 -47 -70 -37 -2 2 19 62 48 132 45 114
79 182 137 276 37 60 -43 132 -138 126 -42 -3 -47 -6 -70 -49 -24 -45 -228
-284 -236 -277 -6 6 -5 189 0 234 4 31 2 43 -9 48 -8 3 -17 1 -20 -4 -3 -5 -3
-79 -1 -164 3 -90 1 -158 -4 -161 -16 -10 -102 46 -96 62 6 15 -29 32 -61 31
-36 -1 -73 22 -98 62 -14 22 -28 40 -31 40 -3 0 -2 -4 1 -10 3 -5 2 -10 -3
-10 -15 0 -83 81 -76 91 3 6 -5 7 -23 3 -26 -7 -27 -6 -13 11 14 17 13 17 -5
8 -11 -6 -26 -8 -33 -6 -7 3 -28 -2 -47 -12 -45 -21 -45 -48 -2 -93 23 -24 26
-31 12 -26 -17 7 -18 6 -5 -8 10 -11 19 -13 27 -7 7 7 13 6 17 0 4 -6 45 -35
92 -66 46 -31 82 -60 79 -65 -3 -6 1 -7 9 -4 13 5 66 -58 66 -79 0 -5 7 -15
15 -23 8 -9 15 -19 15 -24 0 -8 -65 -50 -78 -50 -4 0 -18 16 -31 35 -19 28
-28 34 -45 29 -12 -4 -25 -13 -29 -20 -10 -18 -67 -19 -67 -1 0 19 -58 41 -74
28 -7 -6 -16 -8 -19 -4 -4 3 -7 -1 -7 -10 0 -20 -38 -57 -58 -57 -8 0 -21 -8
-28 -17 -13 -17 -15 -17 -25 0 -5 9 -20 17 -33 17 -39 0 -45 20 -47 142 -1
105 -9 154 -21 132 -9 -15 -6 -218 2 -229 5 -5 0 -26 -10 -45 -11 -19 -19 -30
-20 -23 0 16 -71 36 -84 23 -6 -6 -18 -10 -28 -10 -10 0 -18 -5 -18 -12 0 -6
-13 1 -30 17 -27 26 -41 63 -45 120 -4 63 -5 65 -27 65 -13 0 -39 8 -57 18
-33 16 -35 20 -37 70 -1 28 -8 59 -15 68 -13 16 -16 25 -22 78 -3 18 -15 35
-35 48 -18 11 -32 24 -32 29 0 5 -8 9 -18 9 -10 0 -23 5 -30 12 -15 15 -178
20 -204 7 -10 -5 -15 -16 -12 -24 4 -10 0 -15 -11 -15 -15 0 -17 7 -13 51 4
37 2 52 -8 56 -11 4 -14 29 -14 102 0 123 5 141 41 148 32 6 40 33 10 33 -10
0 -23 6 -29 13 -6 7 -13 83 -16 171 -5 166 -8 176 -52 176 -20 0 -21 -3 -16
-150 4 -145 4 -150 -15 -150 -18 0 -162 105 -177 128 -3 5 -6 94 -7 198 -1
104 -4 195 -6 202 -3 6 -14 12 -25 12 -19 0 -20 -5 -13 -195z m118 -339 c29
-19 71 -54 94 -78 l42 -43 3 -104 3 -104 -30 -9 c-16 -5 -43 -9 -60 -9 -16 0
-24 -3 -19 -7 13 -8 10 -40 -5 -55 -7 -7 -15 -6 -24 2 -11 9 -17 8 -27 -3 -6
-9 -9 -20 -5 -25 3 -6 2 -18 -3 -27 -22 -39 -38 45 -17 86 17 33 19 30 -33 46
-10 3 -10 9 -2 23 5 11 10 87 11 173 1 144 3 168 15 168 3 0 29 -15 57 -34z
m-111 -313 c10 -9 18 -26 18 -37 -1 -20 -2 -20 -14 -3 -7 9 -18 17 -25 17 -6
0 -11 9 -11 20 0 24 8 25 32 3z m211 -105 c2 -18 2 -39 0 -45 -10 -26 -18 -12
-20 32 -3 52 12 61 20 13z m1915 -18 c-1 -16 -6 -30 -10 -30 -9 0 -10 22 -2
44 10 25 15 19 12 -14z m-3 -51 c4 -5 -1 -19 -11 -30 -20 -23 -35 -25 -29 -4
3 8 7 22 10 30 5 17 21 20 30 4z m-2115 -35 c0 -8 -4 -12 -10 -9 -5 3 -10 13
-10 21 0 8 5 12 10 9 6 -3 10 -13 10 -21z m80 12 c0 -11 -19 -15 -25 -6 -3 5
1 10 9 10 9 0 16 -2 16 -4z m2003 -42 c3 -3 2 -14 -3 -23 -5 -9 -27 -54 -49
-101 -41 -89 -70 -135 -71 -112 0 7 9 33 20 58 11 24 29 64 40 88 11 25 20 51
20 58 0 24 29 46 43 32z m-2073 -24 c0 -5 -4 -10 -10 -10 -5 0 -10 5 -10 10 0
6 5 10 10 10 6 0 10 -4 10 -10z m141 -10 c1 -11 2 -29 2 -40 1 -11 -3 -21 -8
-22 -6 -2 -11 16 -13 40 -2 25 1 42 7 42 6 0 12 -9 12 -20z m1808 -102 c-27
-62 -54 -123 -59 -136 -8 -18 -13 -21 -27 -13 -43 25 -55 40 -46 55 9 16 174
206 179 206 1 0 -20 -51 -47 -112z m-2069 52 c0 -5 -4 -10 -9 -10 -6 0 -13 5
-16 10 -3 6 1 10 9 10 9 0 16 -4 16 -10z m4045 -30 c0 -29 -35 -40 -58 -19
-11 11 -11 16 2 31 23 27 56 19 56 -12z m-147 -133 c13 -15 17 -128 7 -179 -9
-48 -26 -62 -50 -44 -14 10 -25 11 -47 2 -20 -8 -33 -8 -46 0 -17 11 -18 18
-9 140 3 55 21 74 68 74 21 0 41 5 44 10 8 14 20 13 33 -3z m-2068 -17 c0 -5
-2 -10 -4 -10 -3 0 -8 5 -11 10 -3 6 -1 10 4 10 6 0 11 -4 11 -10z m2190 -19
c0 -20 -18 -31 -52 -31 -28 0 -19 32 12 41 38 11 40 10 40 -10z m-2122 -34
c17 -18 19 -26 10 -35 -18 -18 -35 -15 -52 10 -11 16 -13 25 -4 35 15 18 21
17 46 -10z m152 -11 c0 -17 -14 -29 -23 -20 -8 8 3 34 14 34 5 0 9 -6 9 -14z
m-280 -61 c0 -8 6 -15 13 -16 9 0 9 -2 -1 -6 -6 -2 -10 -8 -7 -13 9 -14 -42
-21 -72 -9 l-28 10 40 25 c47 28 55 29 55 9z m1951 -22 c2 -21 3 -53 1 -70 -3
-29 -7 -33 -33 -33 -19 0 -31 6 -35 18 -3 9 -10 25 -15 35 -11 20 -2 36 36 69
31 27 43 22 46 -19z m-1781 -18 c-16 -19 -25 -19 -44 1 -23 22 -20 32 8 27 13
-3 27 1 32 9 7 10 9 9 12 -5 2 -10 -2 -24 -8 -32z m1638 -4 c-2 -20 -9 -27
-31 -29 -37 -5 -48 25 -18 49 29 24 53 14 49 -20z m1860 -17 c31 -9 30 -44 -2
-44 -32 0 -63 29 -44 41 16 10 17 10 46 3z m-2958 -40 c0 -8 -5 -12 -10 -9 -6
4 -8 11 -5 16 9 14 15 11 15 -7z m-45 -4 c-3 -5 -10 -10 -16 -10 -5 0 -9 5 -9
10 0 6 7 10 16 10 8 0 12 -4 9 -10z m-290 -41 c2 -13 -1 -31 -6 -39 -7 -12 -8
-11 -9 5 0 11 -3 31 -7 44 -4 17 -2 22 7 19 7 -2 14 -15 15 -29z m3065 -54 c0
-8 -4 -15 -10 -15 -5 0 -10 7 -10 15 0 8 5 15 10 15 6 0 10 -7 10 -15z m393 6
c9 -1 17 -9 16 -18 0 -13 -2 -14 -6 -4 -4 11 -7 11 -13 1 -10 -16 -147 -17
-162 -2 -5 5 -24 6 -41 2 -35 -7 -57 -3 -57 10 0 13 138 18 263 11z m137 -21
c0 -5 -2 -10 -4 -10 -3 0 -8 5 -11 10 -3 6 -1 10 4 10 6 0 11 -4 11 -10z m40
0 c0 -5 -4 -10 -10 -10 -5 0 -10 5 -10 10 0 6 5 10 10 10 6 0 10 -4 10 -10z
m40 0 c0 -5 -4 -10 -9 -10 -6 0 -13 5 -16 10 -3 6 1 10 9 10 9 0 16 -4 16 -10z
m40 6 c0 -11 -19 -15 -25 -6 -3 5 1 10 9 10 9 0 16 -2 16 -4z m-3240 -30 c25
-1 50 -6 56 -11 6 -6 80 -23 165 -38 85 -16 164 -33 177 -38 13 -5 35 -9 50
-9 15 0 56 -7 92 -15 36 -8 100 -22 143 -31 52 -11 77 -21 77 -30 0 -23 -27
-28 -83 -16 -29 6 -77 14 -107 17 -30 4 -75 11 -100 16 -89 20 -146 30 -224
40 -44 5 -84 13 -90 16 -5 4 -19 8 -30 9 -35 3 -200 34 -216 40 -8 4 -33 8
-55 10 -59 4 -106 18 -106 29 0 16 60 24 136 18 39 -3 90 -6 115 -7z m797 -8
c-3 -8 -6 -5 -6 6 -1 11 2 17 5 13 3 -3 4 -12 1 -19z m113 12 c0 -5 -2 -10 -4
-10 -3 0 -8 5 -11 10 -3 6 -1 10 4 10 6 0 11 -4 11 -10z m116 3 c-10 -11 -85
-12 -92 -2 -3 5 18 9 47 9 29 0 49 -3 45 -7z m187 0 c-13 -2 -33 -2 -45 0 -13
2 -3 4 22 4 25 0 35 -2 23 -4z m-1488 -23 c0 -11 -9 -14 -29 -12 -16 2 -32 -2
-36 -8 -5 -9 -16 -8 -38 4 -50 26 -44 31 31 31 57 0 72 -3 72 -15z m545 5 c0
-8 -4 -15 -9 -15 -13 0 -22 16 -14 24 11 11 23 6 23 -9z m165 5 c3 -5 1 -10
-4 -10 -6 0 -11 5 -11 10 0 6 2 10 4 10 3 0 8 -4 11 -10z m315 0 c0 -5 -2 -10
-4 -10 -3 0 -8 5 -11 10 -3 6 -1 10 4 10 6 0 11 -4 11 -10z m-530 -15 c0 -8
-4 -15 -10 -15 -5 0 -10 7 -10 15 0 8 5 15 10 15 6 0 10 -7 10 -15z m105 5 c3
-5 1 -10 -4 -10 -6 0 -11 5 -11 10 0 6 2 10 4 10 3 0 8 -4 11 -10z m52 -22
c-3 -7 -5 -2 -5 12 0 14 2 19 5 13 2 -7 2 -19 0 -25z m-1252 2 c-3 -5 -10 -10
-16 -10 -5 0 -9 5 -9 10 0 6 7 10 16 10 8 0 12 -4 9 -10z m226 -97 c4 -49 10
-113 13 -143 5 -43 4 -50 -4 -31 -6 13 -13 65 -15 115 -3 50 -8 107 -11 126
-3 19 -2 32 2 28 4 -4 10 -47 15 -95z m-251 -83 c0 -15 -7 -20 -27 -20 -16 0
-53 -11 -83 -25 -30 -13 -47 -19 -36 -12 10 7 40 26 65 44 54 37 81 42 81 13z
m676 -61 c67 -54 95 -83 61 -62 -22 14 -147 115 -147 119 0 11 17 -1 86 -57z
m938 19 c24 -10 24 -12 8 -25 -9 -8 -12 -12 -5 -9 6 3 19 3 28 0 14 -6 15 -8
0 -24 -19 -21 -139 -35 -209 -25 -35 6 -46 12 -46 25 0 27 23 31 124 25 76 -5
88 -4 75 7 -9 7 -14 19 -12 26 6 15 6 15 37 0z m213 -64 c-3 -3 -12 -4 -19 -1
-8 3 -5 6 6 6 11 1 17 -2 13 -5z m-1558 -314 c-12 -185 -69 -406 -135 -519
-17 -29 -17 -30 33 114 53 152 84 303 88 435 2 63 1 117 -3 120 -14 10 -41
100 -31 105 10 7 14 -1 26 -60 7 -37 8 -35 12 35 l5 75 7 -85 c4 -47 3 -146
-2 -220z m1931 225 c0 -9 -6 -12 -16 -8 -13 5 -13 7 -2 14 17 11 18 11 18 -6z
m-400 -25 c0 -5 -4 -10 -10 -10 -5 0 -10 5 -10 10 0 6 5 10 10 10 6 0 10 -4
10 -10z m920 -9 c-5 -11 -19 -22 -29 -26 -21 -6 -97 -5 -118 3 -38 13 13 27
145 41 9 1 10 -4 2 -18z m-777 -68 c-7 -2 -19 -2 -25 0 -7 3 -2 5 12 5 14 0
19 -2 13 -5z m-749 -12 c3 -5 0 -11 -8 -14 -8 -3 -17 1 -20 9 -6 15 19 20 28
5z m1592 -101 c9 0 12 -4 9 -10 -9 -14 -18 -13 -41 6 -17 14 -17 15 -1 10 10
-3 25 -6 33 -6z m-1504 -16 c24 -12 28 -18 17 -25 -21 -13 -25 -11 -43 16 -19
29 -16 31 26 9z m1068 2 c0 -3 -4 -8 -10 -11 -5 -3 -10 -1 -10 4 0 6 5 11 10
11 6 0 10 -2 10 -4z m345 -26 c-3 -5 -17 -10 -31 -10 -13 0 -24 5 -24 10 0 6
14 10 31 10 17 0 28 -4 24 -10z m-765 -31 c0 -5 -7 -9 -15 -9 -9 0 -27 -7 -40
-16 -24 -15 -45 -12 -45 7 0 5 8 9 18 9 11 0 27 9 37 20 14 15 21 17 32 9 7
-6 13 -15 13 -20z m100 -10 c0 -13 -13 -11 -35 5 -18 13 -18 14 8 9 15 -3 27
-9 27 -14z m296 10 c3 -6 17 -9 30 -6 13 2 24 0 24 -5 0 -15 -42 -25 -69 -17
-14 5 -39 12 -56 15 l-30 8 35 6 c53 11 58 11 66 -1z m-356 -3 c0 -2 -7 -6
-15 -10 -8 -3 -15 -1 -15 4 0 6 7 10 15 10 8 0 15 -2 15 -4z m150 -6 c0 -5 -4
-10 -10 -10 -5 0 -10 5 -10 10 0 6 5 10 10 10 6 0 10 -4 10 -10z m477 4 c-3
-3 -12 -4 -19 -1 -8 3 -5 6 6 6 11 1 17 -2 13 -5z m-1067 -46 c0 -4 -12 -11
-27 -14 -16 -4 -32 -9 -37 -12 -4 -2 -37 -5 -72 -6 -55 -1 -64 1 -64 16 0 10
6 18 13 19 6 0 21 3 32 6 11 3 37 4 58 4 25 -1 39 3 43 13 5 13 9 13 30 -2 13
-9 24 -20 24 -24z m905 32 c-3 -5 -13 -10 -21 -10 -8 0 -12 5 -9 10 3 6 13 10
21 10 8 0 12 -4 9 -10z m175 -91 c0 -21 -3 -21 -58 -16 -32 4 -67 10 -77 13
-18 7 -18 8 1 15 10 4 45 8 77 8 52 1 57 -1 57 -20z m544 -14 c-4 -8 -8 -15
-10 -15 -2 0 -4 7 -4 15 0 8 4 15 10 15 5 0 7 -7 4 -15z m-986 -18 c6 -5 12
-18 12 -29 0 -17 -3 -18 -15 -8 -8 6 -18 10 -22 7 -4 -3 -21 1 -38 8 -17 8
-23 14 -14 14 9 1 19 8 23 16 5 15 28 12 54 -8z m802 13 c0 -5 -5 -10 -11 -10
-5 0 -7 5 -4 10 3 6 8 10 11 10 2 0 4 -4 4 -10z m74 -5 c4 -10 -1 -15 -14 -15
-11 0 -20 7 -20 15 0 8 6 15 14 15 8 0 16 -7 20 -15z m649 4 c7 0 3 -4 -8 -8
-24 -10 -47 -3 -39 11 3 5 13 7 21 4 8 -3 20 -6 26 -7z m-1813 -30 c0 -6 -4
-7 -10 -4 -5 3 -10 11 -10 16 0 6 5 7 10 4 6 -3 10 -11 10 -16z m423 -10 c8
-10 16 -16 19 -13 8 8 59 -7 53 -16 -4 -6 33 -29 58 -36 4 -1 10 -3 15 -4 4
-1 12 -2 17 -1 6 1 3 -5 -7 -12 -9 -7 -36 -12 -60 -12 -114 4 -128 6 -128 14
0 5 9 11 20 14 34 9 24 29 -10 22 -29 -6 -42 6 -20 20 17 10 2 24 -20 18 -15
-4 -19 -2 -15 9 9 22 62 20 78 -3z m-543 -3 c0 -11 -19 -15 -25 -6 -3 5 1 10
9 10 9 0 16 -2 16 -4z m1075 -56 c-3 -5 -10 -10 -16 -10 -5 0 -9 5 -9 10 0 6
7 10 16 10 8 0 12 -4 9 -10z m209 -47 c-11 -8 -19 -18 -19 -23 0 -4 -3 -12 -7
-16 -5 -4 -8 5 -8 19 0 20 5 27 20 27 11 0 19 3 19 8 -3 17 3 26 8 13 3 -8 -3
-20 -13 -28z m-169 -3 c3 -5 -3 -20 -14 -32 -23 -24 -27 -38 -11 -38 6 0 10
-9 10 -20 0 -11 -5 -20 -11 -20 -5 0 -7 -5 -3 -12 5 -8 -5 -9 -36 -4 -48 8
-60 13 -60 27 0 5 15 9 34 9 41 0 52 12 31 33 -11 12 -23 13 -45 7 -34 -10
-38 0 -14 29 13 14 25 18 49 14 19 -3 35 0 39 6 9 14 23 14 31 1z m310 -5 c0
-5 -10 -11 -22 -13 -16 -2 -23 2 -23 13 0 11 7 15 23 13 12 -2 22 -7 22 -13z
m-265 -5 c0 -5 -5 -10 -11 -10 -5 0 -7 5 -4 10 3 6 8 10 11 10 2 0 4 -4 4 -10z
m456 -2 c4 -6 3 -8 -4 -4 -5 3 -31 -10 -56 -29 -50 -38 -53 -38 -31 5 17 34
76 52 91 28z m-1599 -25 c4 -10 15 -12 39 -7 23 4 34 2 34 -5 0 -7 -4 -9 -10
-6 -5 3 -10 1 -10 -4 0 -17 32 -13 46 7 10 14 31 17 123 19 61 2 111 -1 111
-6 0 -5 14 -14 30 -20 17 -5 30 -15 30 -22 0 -6 -7 -8 -17 -5 -9 4 -20 1 -24
-6 -6 -9 -11 -9 -23 1 -9 8 -16 9 -16 3 0 -6 6 -12 13 -15 9 -3 9 -8 1 -17 -9
-9 -16 -9 -33 2 -11 7 -21 17 -21 22 0 4 -6 4 -12 -1 -19 -15 -96 -32 -118
-26 -12 3 -20 0 -20 -6 0 -7 -5 -9 -10 -6 -6 4 -8 10 -5 15 3 5 0 12 -6 16 -7
4 -9 3 -5 -4 3 -6 2 -13 -3 -16 -5 -3 -11 0 -14 8 -3 7 -20 16 -38 20 -17 3
-38 14 -45 24 -13 16 -14 16 -8 0 4 -12 1 -18 -9 -18 -9 0 -19 -9 -22 -20 -7
-23 -25 -26 -43 -8 -10 10 -14 10 -20 1 -4 -7 -37 -15 -74 -17 -59 -5 -66 -3
-71 14 -4 17 -1 19 18 14 16 -4 27 1 38 17 18 25 12 46 -8 29 -9 -8 -11 -5 -8
14 5 24 6 24 30 9 18 -12 27 -13 36 -4 6 6 26 11 43 11 18 0 35 4 38 9 8 12
57 1 63 -16z m1813 9 c0 -4 23 -7 50 -6 28 0 50 -3 50 -8 0 -5 -15 -7 -32 -4
-18 3 -27 3 -20 0 23 -11 12 -29 -19 -30 -17 -1 -35 -7 -39 -14 -10 -16 -18
-1 -15 27 1 12 -2 20 -7 17 -4 -3 -8 1 -8 8 0 9 -3 9 -10 -2 -8 -13 -10 -12
-10 3 0 12 8 17 30 17 17 0 30 -3 30 -8z m-984 -39 c-11 -11 -19 6 -11 24 8
17 8 17 12 0 3 -10 2 -21 -1 -24z m824 7 c-12 -8 -11 -10 6 -10 11 0 25 5 31
11 8 8 13 8 17 0 4 -6 17 -11 30 -11 13 0 31 -9 41 -19 9 -11 34 -21 54 -23
l36 -3 -29 -15 c-26 -13 -30 -13 -46 7 -10 12 -21 19 -25 15 -3 -4 -13 1 -20
11 -13 18 -14 18 -34 1 -25 -22 -61 -25 -68 -7 -3 7 -10 10 -16 6 -6 -4 -8 0
-4 10 3 9 2 19 -3 22 -4 3 -11 -1 -13 -7 -3 -8 -6 -6 -6 5 -1 11 6 17 19 17
11 0 20 5 20 12 0 9 3 9 12 0 10 -10 10 -15 -2 -22z m85 20 c3 -5 -1 -10 -9
-10 -9 0 -16 5 -16 10 0 6 4 10 9 10 6 0 13 -4 16 -10z m-3097 -32 c2 -8 -4
-15 -13 -15 -8 0 -15 9 -15 20 0 22 23 18 28 -5z m1112 16 c0 -3 -7 -12 -15
-21 -8 -8 -13 -18 -10 -23 3 -4 -4 -6 -16 -3 -20 6 -20 6 2 29 21 23 39 31 39
18z m680 2 c0 -2 -8 -10 -17 -17 -16 -13 -17 -12 -4 4 13 16 21 21 21 13z
m234 -4 c2 -4 -7 -9 -20 -10 -15 -1 -22 2 -19 8 7 12 32 13 39 2z m1316 -2 c8
-5 12 -11 9 -14 -3 -3 -14 1 -25 9 -21 16 -8 20 16 5z m-1495 -10 c3 -6 -1 -7
-9 -4 -18 7 -21 14 -7 14 6 0 13 -4 16 -10z m390 0 c3 -5 -1 -10 -10 -10 -9 0
-13 5 -10 10 3 6 8 10 10 10 2 0 7 -4 10 -10z m288 3 c-7 -2 -13 -13 -13 -23
0 -10 -7 -20 -15 -24 -11 -4 -15 1 -15 18 0 28 8 36 34 35 12 0 15 -3 9 -6z
m769 -5 c-7 -7 -12 -17 -12 -22 0 -6 5 -5 12 2 15 15 42 16 33 2 -4 -6 -11 -7
-17 -4 -7 4 -8 2 -4 -5 4 -6 2 -19 -6 -28 -8 -11 -9 -14 -1 -10 7 4 23 -2 38
-15 30 -26 18 -38 -28 -28 -23 4 -31 11 -29 24 2 11 -1 15 -7 11 -6 -3 -11 -1
-11 4 0 6 5 11 10 11 18 0 10 18 -10 23 -27 7 -25 35 3 40 39 8 41 7 29 -5z
m-2262 -6 c0 -5 -11 -14 -24 -20 -19 -8 -28 -7 -43 4 -12 11 -13 14 -3 11 8
-2 24 -1 35 4 27 10 35 11 35 1z m1240 -2 c0 -5 -2 -10 -4 -10 -3 0 -8 5 -11
10 -3 6 -1 10 4 10 6 0 11 -4 11 -10z m525 0 c-3 -5 4 -10 17 -11 13 -1 30 -2
38 -3 8 -2 24 -3 34 -4 17 -2 16 -5 -10 -24 -33 -26 -40 -44 -24 -63 13 -16 7
-20 -42 -29 -24 -4 -38 -3 -38 3 0 6 -7 8 -15 5 -11 -5 -13 -2 -9 10 3 9 15
16 25 16 10 0 19 4 19 9 0 5 8 11 17 13 15 3 15 4 -1 21 -10 9 -29 17 -43 17
-15 0 -23 5 -20 13 2 6 9 12 15 12 6 0 17 6 24 13 15 15 22 16 13 2z m-3875
-9 c0 -38 -24 -50 -61 -30 -16 8 -18 13 -8 25 13 15 69 20 69 5z m3116 -17
c-10 -7 -15 -17 -12 -23 4 -5 2 -12 -3 -16 -6 -3 -8 -23 -5 -44 2 -22 0 -42
-6 -46 -6 -3 -7 0 -4 9 4 10 -1 18 -10 22 -13 5 -14 9 -4 21 10 13 9 15 -7 11
-11 -2 -19 -10 -17 -16 1 -7 -2 -12 -8 -12 -5 0 -10 2 -10 4 0 2 -3 11 -6 19
-3 9 2 16 15 20 11 2 21 15 23 28 1 13 14 29 27 36 30 15 51 5 27 -13z m144
-23 c8 -9 34 -7 42 4 11 15 18 1 11 -23 -3 -12 -12 -22 -19 -22 -8 0 -14 -9
-14 -20 0 -12 -7 -20 -17 -20 -13 0 -14 3 -5 12 16 16 15 28 -3 28 -9 0 -18
-12 -22 -30 -7 -35 -15 -32 -19 7 -2 14 -9 30 -16 34 -19 12 -21 4 -6 -21 10
-18 10 -24 0 -27 -6 -3 -9 -9 -6 -15 7 -12 -34 11 -55 31 -13 12 -12 13 7 7
27 -9 29 5 2 22 -26 16 -25 28 5 56 l25 23 43 -20 c23 -12 44 -23 47 -26z
m412 37 c-9 -9 -15 -9 -24 0 -9 9 -7 12 12 12 19 0 21 -3 12 -12z m53 -19 c4
-6 0 -9 -11 -7 -12 2 -19 -3 -18 -13 1 -9 -5 -16 -12 -16 -17 0 -17 3 -4 28
12 21 35 25 45 8z m-3835 -3 c0 -3 -4 -8 -10 -11 -5 -3 -10 -1 -10 4 0 6 5 11
10 11 6 0 10 -2 10 -4z m2150 0 c0 -3 -4 -8 -10 -11 -5 -3 -10 -1 -10 4 0 6 5
11 10 11 6 0 10 -2 10 -4z m2578 -24 c10 -6 4 -9 -16 -8 -17 1 -27 5 -24 10 3
5 -3 6 -13 2 -15 -5 -16 -4 -5 9 12 14 20 13 58 -13z m-4783 -15 c-2 -36 -11
-57 -26 -57 -9 0 -3 63 8 83 10 17 19 5 18 -26z m4455 3 c0 -5 -2 -10 -4 -10
-3 0 -8 5 -11 10 -3 6 -1 10 4 10 6 0 11 -4 11 -10z m-2283 -25 c-4 -8 -11
-15 -17 -15 -7 0 -7 6 0 21 13 23 26 19 17 -6z m481 9 c12 -8 26 -13 31 -9 5
3 12 1 15 -4 4 -5 -4 -13 -16 -17 -13 -4 -24 -2 -26 5 -2 6 -15 11 -28 11 -15
0 -24 6 -24 15 0 19 20 19 48 -1z m127 6 c3 -5 1 -10 -4 -10 -6 0 -11 5 -11
10 0 6 2 10 4 10 3 0 8 -4 11 -10z m1394 -15 c-13 -13 -27 -25 -32 -25 -13 0
17 39 33 44 8 2 17 4 19 5 2 0 -7 -10 -20 -24z m-639 5 c0 -5 -7 -10 -16 -10
-8 0 -12 5 -9 10 3 6 10 10 16 10 5 0 9 -4 9 -10z m-2233 -49 c1 -11 -5 -25
-13 -32 -11 -9 -14 -8 -14 9 0 23 -36 27 -44 5 -7 -18 -26 -16 -26 2 0 18 -9
19 -30 4 -13 -9 -12 -10 3 -5 17 5 24 -8 9 -18 -16 -10 -31 10 -25 33 4 18 11
22 29 18 13 -2 24 -1 24 4 0 4 12 12 28 17 31 11 57 -5 59 -37z m37 27 c-6
-20 -5 -21 8 -10 12 10 20 8 41 -12 22 -21 24 -26 12 -36 -8 -7 -12 -16 -9
-21 3 -5 -6 -4 -20 3 -27 12 -37 42 -11 32 8 -4 15 -1 15 6 0 8 -10 9 -30 5
-31 -7 -38 4 -24 39 10 25 26 19 18 -6z m2531 12 c3 -5 1 -10 -4 -10 -6 0 -11
5 -11 10 0 6 2 10 4 10 3 0 8 -4 11 -10z m-3960 -10 c3 -5 -1 -10 -10 -10 -9
0 -13 5 -10 10 3 6 8 10 10 10 2 0 7 -4 10 -10z m190 0 c3 -5 -1 -10 -9 -10
-9 0 -16 5 -16 10 0 6 4 10 9 10 6 0 13 -4 16 -10z m3400 -10 c3 -5 -3 -10
-15 -10 -12 0 -18 5 -15 10 3 6 10 10 15 10 5 0 12 -4 15 -10z m425 0 c0 -5
-2 -10 -4 -10 -3 0 -8 5 -11 10 -3 6 -1 10 4 10 6 0 11 -4 11 -10z m260 -5
c-7 -8 -17 -15 -23 -15 -6 0 -2 7 9 15 25 19 30 19 14 0z m-4460 -5 c0 -5 -2
-10 -4 -10 -3 0 -8 5 -11 10 -3 6 -1 10 4 10 6 0 11 -4 11 -10z m420 -4 c0
-16 -28 -42 -36 -33 -7 6 18 47 28 47 5 0 8 -6 8 -14z m4145 4 c3 -5 1 -10 -4
-10 -6 0 -11 5 -11 10 0 6 2 10 4 10 3 0 8 -4 11 -10z m-1289 -9 c-4 -5 0 -11
6 -14 7 -2 10 -8 6 -12 -11 -12 -38 2 -38 20 0 8 7 15 16 15 8 0 13 -4 10 -9z
m-606 -36 c17 -17 40 -44 50 -60 23 -37 39 -122 22 -111 -8 5 -12 0 -12 -13 0
-21 -66 -74 -81 -65 -4 2 -10 -5 -14 -16 -3 -11 -14 -21 -23 -22 -31 -2 -37
-4 -47 -9 -14 -8 -68 -23 -77 -21 -5 1 -8 -5 -8 -13 0 -8 -4 -15 -9 -15 -5 0
-11 -10 -14 -22 -4 -12 -9 -19 -13 -16 -3 4 -21 -9 -39 -28 -39 -41 -100 -84
-120 -84 -8 0 -15 -4 -15 -8 0 -4 -25 -8 -56 -9 -53 -1 -58 1 -98 41 -37 37
-66 99 -66 141 0 22 -18 18 -31 -7 -8 -15 -14 -18 -17 -10 -3 9 -11 5 -26 -11
-18 -19 -33 -25 -74 -25 -29 -1 -52 2 -52 6 0 4 -16 6 -35 4 -21 -3 -35 0 -35
7 0 6 -6 11 -13 11 -18 0 -41 47 -42 85 0 17 -4 36 -9 44 -7 10 -6 12 4 6 10
-6 12 -4 7 8 -6 15 -4 16 16 3 12 -8 30 -11 40 -7 16 6 14 9 -12 29 -25 18
-30 28 -27 54 6 49 46 78 107 78 99 0 170 -50 196 -140 10 -33 18 -49 22 -40
11 26 58 95 75 110 10 7 25 15 34 16 10 1 35 6 57 11 22 6 49 6 60 2 38 -15
63 -10 70 14 12 37 54 87 88 102 21 9 59 14 109 12 70 -2 79 -5 108 -32z
m1070 31 c0 -3 -4 -8 -10 -11 -5 -3 -10 -1 -10 4 0 6 5 11 10 11 6 0 10 -2 10
-4z m595 -33 c-5 -15 -8 -31 -7 -35 1 -5 -4 -8 -12 -8 -13 0 -13 4 0 28 7 15
14 33 14 41 0 8 3 12 6 8 4 -3 3 -19 -1 -34z m175 28 c0 -6 -4 -13 -10 -16 -5
-3 -10 1 -10 9 0 9 5 16 10 16 6 0 10 -4 10 -9z m540 -1 c0 -5 -2 -10 -4 -10
-3 0 -8 5 -11 10 -3 6 -1 10 4 10 6 0 11 -4 11 -10z m-1723 -6 c-3 -3 -12 -4
-19 -1 -8 3 -5 6 6 6 11 1 17 -2 13 -5z m953 -4 c0 -5 -4 -10 -10 -10 -5 0
-10 5 -10 10 0 6 5 10 10 10 6 0 10 -4 10 -10z m163 -10 c-3 -11 -9 -20 -14
-20 -10 0 -12 24 -2 33 13 13 21 7 16 -13z m108 -13 c-8 -8 -11 -7 -11 4 0 20
13 34 18 19 3 -7 -1 -17 -7 -23z m-3035 8 c-8 -8 -18 -15 -22 -15 -3 0 -1 7 6
15 7 8 17 15 22 15 5 0 3 -7 -6 -15z m2069 -6 c2 -12 -3 -15 -16 -12 -10 3
-19 12 -19 20 0 20 32 12 35 -8z m81 -3 c0 -13 -4 -22 -8 -20 -3 2 -9 -2 -11
-8 -4 -9 -8 -10 -14 -2 -4 6 -15 13 -23 16 -10 4 -4 11 20 21 19 9 36 16 36
17 1 0 1 -11 0 -24z m724 11 c0 -8 -9 -24 -19 -36 -11 -12 -26 -32 -35 -44
-10 -13 -8 -4 5 22 18 38 39 69 47 71 1 0 2 -6 2 -13z m-857 -11 c4 -10 1 -13
-8 -9 -8 3 -12 9 -9 14 7 12 11 11 17 -5z m-1793 -6 c0 -5 -9 -10 -21 -10 -11
0 -17 5 -14 10 3 6 13 10 21 10 8 0 14 -4 14 -10z m-1460 -10 c0 -5 -9 -10
-21 -10 -11 0 -17 5 -14 10 3 6 13 10 21 10 8 0 14 -4 14 -10z m3709 -16 c-15
-18 -22 -13 -13 10 3 9 10 13 16 10 5 -3 4 -12 -3 -20z m-2394 6 c3 -5 1 -10
-4 -10 -6 0 -11 5 -11 10 0 6 2 10 4 10 3 0 8 -4 11 -10z m2621 1 c-4 -5 0
-11 6 -13 7 -3 1 -7 -13 -10 -22 -4 -25 -2 -21 14 2 10 11 18 19 18 8 0 12 -4
9 -9z m224 -6 c0 -8 -7 -15 -15 -15 -16 0 -20 12 -8 23 11 12 23 8 23 -8z
m-1175 -16 c-4 -5 -16 -8 -28 -8 -17 1 -18 2 -4 6 9 2 17 9 17 14 0 6 5 7 10
4 6 -4 8 -11 5 -16z m843 12 c2 -1 -4 -8 -13 -17 -15 -16 -18 -15 -37 3 l-20
21 33 -3 c19 -2 35 -4 37 -4z m-678 -17 c0 -2 -7 -4 -15 -4 -8 0 -15 4 -15 10
0 5 7 7 15 4 8 -4 15 -8 15 -10z m600 1 c7 -9 8 -15 2 -15 -5 0 -12 7 -16 15
-3 8 -4 15 -2 15 2 0 9 -7 16 -15z m140 -10 c0 -7 5 -15 12 -17 6 -2 9 -10 7
-17 -3 -9 -15 -1 -32 22 -23 31 -24 34 -7 30 11 -3 20 -11 20 -18z m-680 0 c0
-14 -12 -20 -34 -16 -4 1 -14 -6 -21 -16 -7 -10 -16 -15 -19 -12 -9 8 44 59
60 59 8 0 14 -7 14 -15z m806 3 c12 -20 -12 -29 -29 -10 -15 17 -15 18 3 19
11 1 22 -3 26 -9z m-3935 -25 c-12 -20 -14 -14 -5 12 4 9 9 14 11 11 3 -2 0
-13 -6 -23z m3330 12 c22 -1 39 1 39 6 0 5 15 8 33 7 20 -1 34 -6 34 -14 0 -9
-9 -11 -29 -7 -17 3 -28 1 -28 -6 0 -6 10 -10 22 -8 35 3 33 -26 -4 -48 -18
-10 -34 -18 -35 -17 -2 1 -10 -1 -19 -5 -9 -3 -19 -2 -23 3 -8 12 -81 2 -84
-11 -1 -5 -10 -10 -19 -10 -9 -1 -15 2 -12 7 3 4 -2 8 -11 8 -11 0 -15 -5 -11
-15 3 -8 1 -15 -4 -15 -6 0 -10 5 -10 11 0 6 -12 9 -27 7 -16 -2 -28 2 -28 7
0 6 -4 16 -9 24 -7 10 -4 12 13 6 11 -3 33 -8 48 -11 27 -4 27 -3 9 11 -19 14
-11 21 18 16 4 -1 13 5 20 13 6 8 22 16 36 18 17 2 25 9 24 20 -1 10 3 15 9
11 5 -3 27 -7 48 -8z m190 0 c5 4 6 -1 2 -10 -5 -13 -7 -14 -14 -3 -5 7 -8 18
-8 23 0 6 3 4 6 -3 2 -6 9 -10 14 -7z m539 0 c0 -9 -6 -12 -15 -9 -8 4 -15 1
-15 -5 0 -6 -8 -11 -17 -11 -15 0 -14 2 3 19 23 24 44 27 44 6z m39 -2 c-12
-15 -12 -16 8 -11 32 8 38 -27 6 -41 -33 -15 -35 -14 -23 9 13 23 3 26 -26 6
-13 -10 -25 -11 -35 -5 -11 7 -9 9 8 9 12 0 30 11 40 25 10 13 22 25 27 25 5
0 2 -8 -5 -17z m-4189 -14 c0 -6 -4 -7 -10 -4 -5 3 -10 11 -10 16 0 6 5 7 10
4 6 -3 10 -11 10 -16z m3335 11 c3 -5 1 -10 -4 -10 -6 0 -11 5 -11 10 0 6 2
10 4 10 3 0 8 -4 11 -10z m-25 -4 c0 -3 -4 -8 -10 -11 -5 -3 -10 -1 -10 4 0 6
5 11 10 11 6 0 10 -2 10 -4z m270 -6 c0 -5 -2 -10 -4 -10 -3 0 -8 5 -11 10 -3
6 -1 10 4 10 6 0 11 -4 11 -10z m-460 -14 c0 -3 -4 -8 -10 -11 -5 -3 -10 -1
-10 4 0 6 5 11 10 11 6 0 10 -2 10 -4z m115 -16 c3 -5 2 -10 -4 -10 -5 0 -13
5 -16 10 -3 6 -2 10 4 10 5 0 13 -4 16 -10z m355 6 c0 -2 3 -12 6 -21 6 -15 4
-15 -15 -4 -25 16 -27 29 -6 29 8 0 15 -2 15 -4z m-40 -30 c10 -13 10 -17 3
-12 -12 7 -18 -5 -14 -27 1 -5 -2 -6 -7 -3 -5 3 -7 19 -4 36 2 17 5 30 6 28 1
-2 8 -12 16 -22z m-422 -48 c-6 -3 -17 -4 -24 -1 -10 4 -10 9 -2 23 11 17 13
17 24 2 9 -12 9 -19 2 -24z m242 7 c0 -8 -4 -15 -9 -15 -13 0 -22 16 -14 24
11 11 23 6 23 -9z m100 5 c0 -5 -5 -10 -11 -10 -5 0 -7 5 -4 10 3 6 8 10 11
10 2 0 4 -4 4 -10z m315 0 c-3 -5 -12 -10 -18 -10 -7 0 -6 4 3 10 19 12 23 12
15 0z m-1261 -15 c11 -8 18 -15 15 -16 -2 0 -15 -3 -28 -5 -14 -2 -22 -1 -18
2 4 4 2 13 -4 21 -16 18 10 17 35 -2z m651 5 c-3 -5 -12 -10 -18 -10 -7 0 -6
4 3 10 19 12 23 12 15 0z m-118 -6 c-3 -3 -12 -4 -19 -1 -8 3 -5 6 6 6 11 1
17 -2 13 -5z m406 -18 c4 -10 1 -13 -9 -9 -7 3 -14 9 -14 14 0 14 17 10 23 -5z
m275 2 c-3 -7 -11 -13 -18 -13 -7 0 -15 6 -17 13 -3 7 4 12 17 12 13 0 20 -5
18 -12z m136 3 c3 -5 -1 -11 -9 -14 -9 -4 -12 -1 -8 9 6 16 10 17 17 5z
m-1063 -21 c-27 -24 -43 -26 -35 -6 3 8 12 12 20 9 8 -3 14 0 14 6 0 6 6 11
13 11 6 -1 1 -10 -12 -20z m1102 -5 c4 -8 3 -16 -1 -19 -4 -3 -9 4 -9 15 -2
23 3 25 10 4z m127 10 c0 -7 -30 -13 -34 -7 -3 4 4 9 15 9 10 1 19 0 19 -2z
m-613 -27 c-3 -8 -6 -5 -6 6 -1 11 2 17 5 13 3 -3 4 -12 1 -19z m407 3 c3 -5
-1 -11 -9 -14 -9 -4 -12 -1 -8 9 6 16 10 17 17 5z m113 -4 c0 -8 -6 -14 -14
-14 -9 0 -10 4 -2 14 6 7 12 13 14 13 1 0 2 -6 2 -13z m263 3 c0 -5 -2 -10 -4
-10 -3 0 -8 5 -11 10 -3 6 -1 10 4 10 6 0 11 -4 11 -10z m-320 -15 c0 -8 -4
-15 -8 -15 -5 0 -9 7 -9 15 0 8 4 15 9 15 4 0 8 -7 8 -15z m-4100 -5 c0 -5 -5
-10 -11 -10 -5 0 -7 5 -4 10 3 6 8 10 11 10 2 0 4 -4 4 -10z m3322 3 c-9 -4
-10 -8 -2 -18 8 -9 8 -15 0 -20 -6 -4 -9 -1 -8 7 2 7 -3 12 -9 11 -14 -3 -17
9 -6 20 3 4 13 7 22 6 11 0 12 -2 3 -6z m1418 1 c0 -8 -19 -13 -24 -6 -3 5 1
9 9 9 8 0 15 -2 15 -3z m-1510 -14 c0 -5 -2 -10 -4 -10 -3 0 -8 5 -11 10 -3 6
-1 10 4 10 6 0 11 -4 11 -10z m217 -6 c-3 -3 -12 -4 -19 -1 -8 3 -5 6 6 6 11
1 17 -2 13 -5z m-508 -27 c0 -9 -2 -8 -6 1 -2 6 -10 9 -15 6 -7 -4 -8 -2 -4 5
9 13 26 5 25 -12z m31 9 c0 -3 -4 -8 -10 -11 -5 -3 -10 -1 -10 4 0 6 5 11 10
11 6 0 10 -2 10 -4z m250 -6 c0 -5 -2 -10 -4 -10 -3 0 -8 5 -11 10 -3 6 -1 10
4 10 6 0 11 -4 11 -10z m-328 -32 c-7 -7 -12 -8 -12 -2 0 14 12 26 19 19 2 -3
-1 -11 -7 -17z m863 -6 c-3 -3 -11 0 -18 7 -9 10 -8 11 6 5 10 -3 15 -9 12
-12z m-746 -5 c8 -10 7 -14 -2 -14 -8 0 -14 6 -14 14 0 7 1 13 2 13 2 0 8 -6
14 -13z m-61 -22 c-3 -33 -16 -33 -14 0 0 14 4 25 8 25 4 0 7 -11 6 -25z
m-135 -18 c7 4 4 -4 -5 -19 -21 -32 -12 -45 12 -16 13 17 17 18 17 5 0 -9 -4
-14 -8 -11 -4 2 -9 -1 -11 -8 -8 -22 -36 -17 -41 8 -2 13 0 21 4 18 5 -3 9 -1
9 5 0 5 -4 13 -10 16 -5 3 -10 11 -10 16 0 6 7 3 16 -5 8 -9 21 -13 27 -9z
m-3030 6 c-7 -2 -19 -2 -25 0 -7 3 -2 5 12 5 14 0 19 -2 13 -5z m4927 -3 c0
-5 -5 -10 -11 -10 -5 0 -7 5 -4 10 3 6 8 10 11 10 2 0 4 -4 4 -10z m-1830 -31
c0 -3 -7 -6 -15 -6 -17 0 -17 0 -9 22 5 13 8 14 15 3 5 -7 9 -16 9 -19z m1044
2 c3 -5 -1 -11 -9 -14 -9 -4 -12 -1 -8 9 6 16 10 17 17 5z m-4267 -7 c-3 -3
-12 -4 -19 -1 -8 3 -5 6 6 6 11 1 17 -2 13 -5z m3088 -83 c3 -5 2 -12 -3 -15
-5 -3 -9 1 -9 9 0 17 3 19 12 6z m-794 -24 c-10 -9 -11 -8 -5 6 3 10 9 15 12
12 3 -3 0 -11 -7 -18z m936 17 c-3 -3 -12 -4 -19 -1 -8 3 -5 6 6 6 11 1 17 -2
13 -5z m49 -16 c4 -6 3 -8 -4 -4 -5 3 -12 1 -14 -6 -3 -8 -7 -6 -11 5 -7 20
17 24 29 5z m1778 -4 c3 -8 2 -12 -4 -9 -6 3 -10 10 -10 16 0 14 7 11 14 -7z
m-979 -12 c-3 -3 -11 0 -18 7 -9 10 -8 11 6 5 10 -3 15 -9 12 -12z m-3839 -12
c0 -11 -4 -20 -8 -20 -10 0 -11 24 -1 33 9 9 9 10 9 -13z m2947 -4 c4 -10 1
-13 -9 -9 -7 3 -14 9 -14 14 0 14 17 10 23 -5z m-748 -14 c-3 -3 -11 0 -18 7
-9 10 -8 11 6 5 10 -3 15 -9 12 -12z m1679 2 c3 -8 2 -12 -4 -9 -6 3 -10 10
-10 16 0 14 7 11 14 -7z m-2287 -24 c-1 -12 -5 -16 -10 -11 -5 5 -6 14 -3 20
11 16 15 13 13 -9z m128 10 c3 -5 1 -10 -4 -10 -6 0 -11 5 -11 10 0 6 2 10 4
10 3 0 8 -4 11 -10z m1240 -20 c3 -5 2 -10 -4 -10 -5 0 -13 5 -16 10 -3 6 -2
10 4 10 5 0 13 -4 16 -10z m535 0 c0 -5 -2 -10 -4 -10 -3 0 -8 5 -11 10 -3 6
-1 10 4 10 6 0 11 -4 11 -10z m117 -9 c0 -11 -5 -18 -9 -15 -4 3 -5 11 -1 19
7 21 12 19 10 -4z m127 10 c4 -5 -3 -7 -14 -4 -23 6 -26 13 -6 13 8 0 17 -4
20 -9z m-2624 -16 c0 -8 -7 -15 -15 -15 -8 0 -15 5 -15 11 0 5 5 7 10 4 6 -3
10 -1 10 4 0 6 2 11 5 11 3 0 5 -7 5 -15z m290 11 c0 -2 -9 -6 -20 -9 -11 -3
-18 -1 -14 4 5 9 34 13 34 5z m80 -2 c0 -8 -19 -13 -24 -6 -3 5 1 9 9 9 8 0
15 -2 15 -3z m2560 -21 c0 -3 -9 -3 -20 0 -11 3 -20 0 -20 -6 0 -6 -3 -8 -6
-4 -12 11 6 25 26 20 11 -3 20 -8 20 -10z m-3066 -9 c3 -8 2 -12 -4 -9 -6 3
-10 10 -10 16 0 14 7 11 14 -7z m56 12 c0 -2 -7 -7 -16 -10 -8 -3 -12 -2 -9 4
6 10 25 14 25 6z m1416 -25 c-4 -6 -13 -11 -19 -11 -8 0 -7 3 2 9 8 5 10 14 6
22 -6 11 -5 11 5 2 7 -6 9 -16 6 -22z m41 23 c-3 -3 -12 -4 -19 -1 -8 3 -5 6
6 6 11 1 17 -2 13 -5z m220 0 c-3 -3 -12 -4 -19 -1 -8 3 -5 6 6 6 11 1 17 -2
13 -5z m-1097 -14 c0 -5 -5 -10 -11 -10 -5 0 -7 5 -4 10 3 6 8 10 11 10 2 0 4
-4 4 -10z m560 0 c0 -5 -4 -10 -10 -10 -5 0 -10 5 -10 10 0 6 5 10 10 10 6 0
10 -4 10 -10z m725 0 c-3 -5 -14 -10 -23 -9 -14 0 -13 2 3 9 27 11 27 11 20 0z
m50 -12 c6 -4 -3 -8 -19 -8 -24 0 -27 2 -16 15 7 9 16 12 19 8 3 -4 11 -11 16
-15z m-244 -23 c5 4 9 1 9 -5 0 -20 -25 -4 -26 16 -1 16 0 16 3 1 3 -9 9 -15
14 -12z m-513 11 c-7 -8 -15 -12 -17 -11 -5 6 10 25 20 25 5 0 4 -6 -3 -14z
m618 -13 c-7 -7 -26 7 -26 19 0 6 6 6 15 -2 9 -7 13 -15 11 -17z m-723 4 c3
-8 0 -14 -7 -14 -7 0 -13 6 -13 14 0 7 4 13 8 13 4 0 9 -6 12 -13z m564 -9
c-3 -8 -6 -5 -6 6 -1 11 2 17 5 13 3 -3 4 -12 1 -19z m-1632 2 c-3 -5 -13 -10
-21 -10 -8 0 -14 5 -14 10 0 6 9 10 21 10 11 0 17 -4 14 -10z m1288 -10 c-3
-12 -8 -19 -11 -16 -5 6 5 36 12 36 2 0 2 -9 -1 -20z m462 10 c3 -5 1 -10 -4
-10 -6 0 -11 5 -11 10 0 6 2 10 4 10 3 0 8 -4 11 -10z m-1842 -13 c-3 -5 3 -6
16 -2 15 5 21 2 21 -10 0 -9 -4 -13 -10 -10 -5 3 -10 -1 -10 -9 0 -20 -10 -20
-35 1 -20 15 -20 15 3 10 22 -5 23 -4 8 12 -14 15 -14 18 -1 18 8 0 12 -5 8
-10z m474 7 c-3 -3 -12 -4 -19 -1 -8 3 -5 6 6 6 11 1 17 -2 13 -5z m743 -2 c0
-4 -9 -8 -19 -8 -11 0 -17 4 -15 8 3 4 12 8 20 8 8 0 14 -4 14 -8z m1590 -2
c0 -5 -2 -10 -4 -10 -3 0 -8 5 -11 10 -3 6 -1 10 4 10 6 0 11 -4 11 -10z
m-1040 -37 c0 -7 -4 -13 -10 -13 -5 0 -6 7 -3 17 4 11 3 14 -5 9 -8 -5 -10 -2
-5 9 5 13 7 14 14 3 5 -7 9 -19 9 -25z m310 33 c0 -2 -9 -6 -20 -9 -11 -3 -18
-1 -14 4 5 9 34 13 34 5z m-1833 -38 c-3 -7 -5 -2 -5 12 0 14 2 19 5 13 2 -7
2 -19 0 -25z m763 18 c0 -8 -4 -17 -9 -21 -6 -3 -9 4 -8 15 1 23 17 28 17 6z
m-1239 -23 c-12 -20 -14 -14 -5 12 4 9 9 14 11 11 3 -2 0 -13 -6 -23z m1472
20 c-7 -2 -19 -2 -25 0 -7 3 -2 5 12 5 14 0 19 -2 13 -5z m807 -24 c0 -5 -4
-9 -10 -9 -5 0 -9 6 -7 13 1 7 -6 11 -18 9 -16 -2 -17 -1 -5 7 15 10 40 -3 40
-20z m-2518 -9 c-15 -17 -22 -19 -28 -8 -4 7 -4 10 1 6 5 -5 15 1 23 13 8 11
16 18 19 15 3 -2 -4 -14 -15 -26z m1014 -9 c-4 -6 -14 -7 -23 -4 -15 6 -14 7
3 13 22 9 29 6 20 -9z m-1333 -6 c-3 -9 -8 -14 -10 -11 -3 3 -2 9 2 15 9 16
15 13 8 -4z m897 11 c0 -3 -4 -8 -10 -11 -5 -3 -10 -1 -10 4 0 6 5 11 10 11 6
0 10 -2 10 -4z m620 -6 c0 -5 -5 -10 -11 -10 -5 0 -7 5 -4 10 3 6 8 10 11 10
2 0 4 -4 4 -10z m877 -12 c-3 -8 -6 -5 -6 6 -1 11 2 17 5 13 3 -3 4 -12 1 -19z
m83 6 c0 -2 -7 -4 -15 -4 -8 0 -15 4 -15 10 0 5 7 7 15 4 8 -4 15 -8 15 -10z
m157 -6 c-3 -8 -6 -5 -6 6 -1 11 2 17 5 13 3 -3 4 -12 1 -19z m673 12 c0 -5
-5 -10 -11 -10 -5 0 -7 5 -4 10 3 6 8 10 11 10 2 0 4 -4 4 -10z m-2210 -4 c0
-2 -7 -7 -16 -10 -8 -3 -12 -2 -9 4 6 10 25 14 25 6z"/>
<path d="M4371 931 c-10 -6 -9 -10 5 -15 20 -8 25 -4 16 11 -4 7 -13 9 -21 4z"/>
<path d="M4290 926 c0 -2 7 -7 16 -10 8 -3 12 -2 9 4 -6 10 -25 14 -25 6z"/>
<path d="M2527 574 c3 -7 9 -11 14 -8 6 3 16 0 24 -6 9 -8 15 -8 15 -2 0 5
-13 15 -29 20 -25 9 -29 8 -24 -4z"/>
<path d="M3132 565 c0 -16 2 -22 5 -12 2 9 2 23 0 30 -3 6 -5 -1 -5 -18z"/>
<path d="M3130 516 c0 -20 -39 -66 -74 -87 -29 -18 -30 -19 -7 -19 32 0 91 61
91 94 0 14 -2 26 -5 26 -3 0 -5 -6 -5 -14z"/>
<path d="M4468 683 c7 -3 16 -2 19 1 4 3 -2 6 -13 5 -11 0 -14 -3 -6 -6z"/>
<path d="M1234 3132 c-15 -10 2 -55 18 -50 15 5 17 50 3 55 -5 1 -15 -1 -21
-5z"/>
<path d="M1982 3094 c4 -21 22 -23 26 -1 2 10 -3 17 -13 17 -10 0 -15 -6 -13
-16z"/>
<path d="M2690 3075 c0 -8 5 -15 10 -15 6 0 10 7 10 15 0 8 -4 15 -10 15 -5 0
-10 -7 -10 -15z"/>
<path d="M3356 3061 c-4 -5 -2 -12 3 -15 5 -4 12 -2 15 3 4 5 2 12 -3 15 -5 4
-12 2 -15 -3z"/>
<path d="M5397 3053 c-15 -14 -6 -33 17 -39 35 -8 49 2 36 27 -10 19 -40 26
-53 12z"/>
<path d="M3970 3042 c0 -5 6 -16 13 -27 16 -20 33 -5 23 20 -6 16 -36 21 -36
7z"/>
<path d="M5280 3015 c0 -8 5 -15 10 -15 6 0 10 7 10 15 0 8 -4 15 -10 15 -5 0
-10 -7 -10 -15z"/>
<path d="M5540 2983 c-16 -9 -40 -12 -67 -9 -24 3 -43 2 -43 -4 0 -5 -9 -12
-21 -15 -19 -6 -20 -12 -14 -73 4 -39 2 -78 -4 -94 -10 -26 -10 -27 22 -16 18
5 42 14 54 20 21 10 99 6 150 -8 18 -5 23 -1 28 28 3 18 7 67 8 108 l2 75 -45
1 c-25 1 -56 -5 -70 -13z"/>
<path d="M5209 2905 c-15 -8 -44 -19 -65 -24 -22 -5 -64 -16 -94 -23 -107 -27
-102 -34 31 -43 68 -4 147 -8 174 -9 l50 -1 0 55 0 55 -35 2 c-19 2 -47 -4
-61 -12z"/>
<path d="M95 2870 c4 -6 11 -8 16 -5 14 9 11 15 -7 15 -8 0 -12 -5 -9 -10z"/>
<path d="M162 2800 c0 -14 2 -19 5 -12 2 6 2 18 0 25 -3 6 -5 1 -5 -13z"/>
<path d="M1244 2748 c4 -24 8 -57 9 -75 5 -67 17 -42 17 35 0 69 -3 82 -16 82
-13 0 -15 -8 -10 -42z"/>
<path d="M1605 2760 c-8 -13 5 -13 25 0 13 8 13 10 -2 10 -9 0 -20 -4 -23 -10z"/>
<path d="M2690 2735 c0 -21 5 -32 15 -32 10 0 15 11 15 32 0 21 -5 32 -15 32
-10 0 -15 -11 -15 -32z"/>
<path d="M1646 2743 c-12 -12 -6 -33 9 -33 8 0 15 6 15 14 0 17 -14 28 -24 19z"/>
<path d="M90 2730 c0 -5 5 -10 11 -10 5 0 7 5 4 10 -3 6 -8 10 -11 10 -2 0 -4
-4 -4 -10z"/>
<path d="M27 2680 c-3 -12 0 -20 8 -20 8 0 11 8 8 20 -3 11 -7 20 -8 20 -1 0
-5 -9 -8 -20z"/>
<path d="M95 2687 c-4 -11 -3 -23 4 -30 15 -15 19 -7 11 23 -6 22 -8 23 -15 7z"/>
<path d="M1662 2678 c6 -18 25 -21 25 -3 0 8 -7 15 -14 15 -8 0 -13 -5 -11
-12z"/>
<path d="M1253 2604 c-3 -8 -1 -20 6 -27 8 -8 11 -4 11 16 0 30 -7 35 -17 11z"/>
<path d="M2690 2525 c0 -8 5 -15 10 -15 6 0 10 7 10 15 0 8 -4 15 -10 15 -5 0
-10 -7 -10 -15z"/>
<path d="M3658 2465 c-8 -8 4 -65 14 -65 5 0 7 14 4 31 -5 33 -10 42 -18 34z"/>
</g>
</svg>
